<svg id="Cappuccino" xmlns="http://www.w3.org/2000/svg" xmlns:xlink="http://www.w3.org/1999/xlink" width="60.556" height="48.26" viewBox="0 0 60.556 48.26">
  <defs>
    <clipPath id="clip-path">
      <path id="Clip_3" data-name="Clip 3" d="M0,0H60.556V46.26H0Z" fill="none"/>
    </clipPath>
  </defs>
  <g id="Group" transform="translate(2.692)">
    <g id="Group_5" data-name="Group 5">
      <path id="Clip_3-2" data-name="Clip 3" d="M0,0H42V46.26H0Z" transform="translate(13.177 2)" fill="none"/>
      <g id="Group_5-2" data-name="Group 5" transform="translate(-2.692)" clip-path="url(#clip-path)">
        <path id="Fill_2" data-name="Fill 2" d="M6.227,35.715c-3.848,0-5.772-4.875-6-6.8-.453-6.349-.113-22.79,0-27.779V0h42.78V1.134c.113,4.875.453,21.429,0,27.779-.113,1.927-2.15,6.8-6,6.8H6.227" transform="translate(-69.031 -2.728)" fill="#b98875"/>
        <path id="Fill_4" data-name="Fill 4" d="M48.439,46.26H5.093a1.091,1.091,0,0,1-1.019-.68L.113,37.189A.686.686,0,0,1,0,36.735,1.072,1.072,0,0,1,1.131,35.6H6.564a10.318,10.318,0,0,1-2.489-5.556c-.486-6.329-.142-22.218-.029-27.44.018-.81.029-1.344.029-1.473A1.072,1.072,0,0,1,5.206,0H48.1a1.073,1.073,0,0,1,1.132,1.134c0,.051.006.183.015.384.03.679.1,2.267.1,4.378A20.324,20.324,0,0,1,54.537,7.4a34.538,34.538,0,0,1,2.948,3.367c1.354,1.772,2.984,4.331,3.063,6.462A11.739,11.739,0,0,1,49.231,29.593v.454a10.325,10.325,0,0,1-2.49,5.556h5.546a1.237,1.237,0,0,1,.566.113,1.121,1.121,0,0,1,.566,1.473L49.457,45.58A1.09,1.09,0,0,1,48.439,46.26ZM2.83,37.869h0l2.942,6.123H47.646l2.83-6.123H2.83Zm3.508-35.6c-.021.836-.506,20.562,0,27.665a8.926,8.926,0,0,0,1.415,3.472A4.389,4.389,0,0,0,11.2,35.6H42.1c2.961,0,4.753-3.974,4.866-5.669.506-7.1.021-26.829,0-27.665H6.338Zm43.006,5.9c.173,8.9.173,15.165,0,19.161a9.59,9.59,0,0,0,9.054-9.07A9.47,9.47,0,0,0,49.344,8.164Z" transform="translate(-0.008 0)" fill="#231514"/>
      </g>
    </g>
  </g>
</svg>
