<svg id="macciato" xmlns="http://www.w3.org/2000/svg" xmlns:xlink="http://www.w3.org/1999/xlink" width="48.646" height="72.649" viewBox="0 0 48.646 72.649">
  <defs>
    <clipPath id="clip-path">
      <path id="Clip_6" data-name="Clip 6" d="M0,0H48.646V72.649H0Z" fill="none"/>
    </clipPath>
  </defs>
  <path id="Fill_1" data-name="Fill 1" d="M2.016,14.231,0,0H27.957L25.941,14.231H2.016" transform="translate(10.339 56.923)" fill="#c69a80"/>
  <path id="Fill_2" data-name="Fill 2" d="M0,10.536V5.884L31.048,0V10.536H0" transform="translate(8.189 1.368)" fill="#c69a80"/>
  <path id="Fill_3" data-name="Fill 3" d="M31.182,22.714H3.226L0,0H34.408L31.183,22.713Zm-8.737-11.9a10.267,10.267,0,0,1-3.763,2.6c-1.8.916-3.346,1.867-4.032,4.242a.983.983,0,0,1,.336.068.983.983,0,0,0,.336.068,7.641,7.641,0,0,0,5.107-3.01,8.637,8.637,0,0,0,2.016-3.968Zm-3.36-4.79a7.648,7.648,0,0,0-5.107,3.011A9.9,9.9,0,0,0,12.1,12.315a13.4,13.4,0,0,1,3.9-2.737l.182-.1c1.638-.9,2.932-1.6,3.581-3.321a1.594,1.594,0,0,1-.445-.086.945.945,0,0,0-.227-.051h0Z" transform="translate(7.114 34.209)" fill="#b98875"/>
  <path id="Fill_4" data-name="Fill 4" d="M0,9.168H46.1V0H0Z" transform="translate(1.334 11.905)" fill="#eabfa5"/>
  <g id="Group_8" data-name="Group 8">
    <path id="Clip_6-2" data-name="Clip 6" d="M0,0H48.646V72.649H0Z" fill="none"/>
    <g id="Group_8-2" data-name="Group 8" clip-path="url(#clip-path)">
      <path id="Fill_5" data-name="Fill 5" d="M1.882,13.136,0,0H38.172L36.29,13.136H1.882" transform="translate(5.232 21.073)" fill="#c69a80"/>
      <path id="Fill_7" data-name="Fill 7" d="M36.29,72.659H12.366a1.442,1.442,0,0,1-1.344-1.231L4.167,22.577H2.688A2.715,2.715,0,0,1,0,19.841V13.273a2.715,2.715,0,0,1,2.688-2.736H6.855V7.253A1.332,1.332,0,0,1,7.93,5.883L38.843,0h.269a1.284,1.284,0,0,1,1.344,1.368v9.169h5.511a2.715,2.715,0,0,1,2.688,2.736V19.7a2.715,2.715,0,0,1-2.688,2.736H44.489L37.634,71.428A1.444,1.444,0,0,1,36.29,72.659ZM11.828,58.429l1.613,11.358H35.214l1.479-11.358ZM8.737,35.577l2.822,19.978H37.1l2.957-19.978ZM6.855,22.441l1.478,10.4h31.99l1.478-10.4ZM2.688,13.273V19.7H46.1V13.273ZM37.9,3.011,9.543,8.347v2.19H37.9Z" transform="translate(-0.01 0)" fill="#231514"/>
    </g>
  </g>
  <path id="Fill_9" data-name="Fill 9" d="M10.85.728C8.968-.914,5.2.317,2.516,3.465s-3.36,7.115-1.344,8.757C2.248,4.833,9.64,7.3,10.85.728" transform="translate(17.5 38.954)" fill="#fde9da"/>
  <path id="Fill_10" data-name="Fill 10" d="M0,11.494c1.882,1.642,5.645.411,8.333-2.737S11.693,1.642,9.677,0C8.468,6.568,1.075,4.105,0,11.494" transform="translate(20.285 41.051)" fill="#fde9da"/>
</svg>
