<svg id="macciato" xmlns="http://www.w3.org/2000/svg" xmlns:xlink="http://www.w3.org/1999/xlink" width="40.763" height="60.653" viewBox="0 0 40.763 60.653">
  <defs>
    <clipPath id="clip-path">
      <path id="Clip_6" data-name="Clip 6" d="M0,0H40.763V60.653H0Z" fill="none"/>
    </clipPath>
  </defs>
  <g id="macciato-2" data-name="macciato">
    <path id="Fill_3" data-name="Fill 3" d="M12.839,14.851h0a.826.826,0,0,1-.281-.057.828.828,0,0,0-.282-.057c.575-1.981,1.871-2.776,3.38-3.542a8.6,8.6,0,0,0,3.154-2.17,7.211,7.211,0,0,1-1.689,3.313,6.414,6.414,0,0,1-4.28,2.513Zm-2.7-4.572h0A8.261,8.261,0,0,1,11.714,7.54a6.408,6.408,0,0,1,4.28-2.514.8.8,0,0,1,.19.043,1.346,1.346,0,0,0,.374.072c-.544,1.434-1.63,2.025-3,2.774L13.4,8A11.229,11.229,0,0,0,10.14,10.279Z" transform="translate(5.961 28.56)" fill="#b98875"/>
    <g id="Group_8" data-name="Group 8">
      <path id="Clip_6-2" data-name="Clip 6" d="M0,0H40.763V60.653H0Z" fill="none"/>
      <g id="Group_8-2" data-name="Group 8" clip-path="url(#clip-path)">
        <path id="Fill_7" data-name="Fill 7" d="M30.41,60.661H10.362a1.207,1.207,0,0,1-1.126-1.028L3.492,18.849H2.252A2.271,2.271,0,0,1,0,16.565V11.081A2.271,2.271,0,0,1,2.252,8.8H5.744V6.055a1.113,1.113,0,0,1,.9-1.143L32.549,0h.225A1.074,1.074,0,0,1,33.9,1.142V8.8h4.618a2.271,2.271,0,0,1,2.252,2.284v5.37a2.271,2.271,0,0,1-2.252,2.284H37.28l-5.744,40.9A1.209,1.209,0,0,1,30.41,60.661ZM9.911,48.78l1.352,9.482H29.508l1.239-9.482ZM7.321,29.7,9.686,46.381h21.4L33.563,29.7ZM5.744,18.735l1.238,8.683H33.788l1.238-8.683ZM2.252,11.081v5.37H38.632v-5.37ZM31.761,2.514,8,6.969V8.8H31.761Z" transform="translate(-0.008 0)" fill="#231514"/>
      </g>
    </g>
    <path id="Fill_9" data-name="Fill 9" d="M9.092.608C7.515-.763,4.361.265,2.109,2.892S-.707,8.833.982,10.2c.9-6.169,7.1-4.113,8.109-9.6" transform="translate(14.665 32.522)" fill="#fde9da"/>
    <path id="Fill_10" data-name="Fill 10" d="M0,9.6c1.577,1.371,4.73.343,6.983-2.285S9.8,1.371,8.109,0C7.1,5.483.9,3.427,0,9.6" transform="translate(16.998 34.272)" fill="#fde9da"/>
  </g>
</svg>
